<?xml version="1.2" standalone="no"?>
<!DOCTYPE svg PUBLIC "-//W3C//DTD SVG 20010904//EN"
 "http://www.w3.org/TR/2001/REC-SVG-20010904/DTD/svg10.dtd">
<svg version="1.2" xmlns="http://www.w3.org/2000/svg"
 width="1024.000000pt" height="1024.000000pt" viewBox="0 0 1024.000000 1024.000000"
 preserveAspectRatio="xMidYMid meet">

<g transform="translate(0.000000,1024.000000) scale(0.100000,-0.100000)"
fill="#000000" stroke="none">
<path d="M0 5120 l0 -5120 5120 0 5120 0 0 5120 0 5120 -5120 0 -5120 0 0
-5120z m4701 2853 c0 -5 2 -16 4 -26 2 -12 -17 -30 -66 -62 -118 -76 -170
-184 -170 -353 l0 -92 -37 5 c-111 16 -214 25 -273 25 l-66 0 -5 78 c-10 166
-127 304 -310 366 -21 6 -25 52 -5 59 20 9 927 8 928 0z m1709 -18 c0 -14 -6
-25 -12 -25 -7 0 -40 -13 -73 -29 -132 -62 -235 -236 -235 -398 l0 -53 -154 0
-154 0 -3 118 c-4 104 -7 123 -32 173 -32 66 -94 127 -166 164 -48 24 -64 49
-44 68 3 4 201 7 440 7 l433 0 0 -25z m-2043 -590 c130 -18 212 -37 341 -77
l102 -31 0 -299 0 -299 -42 3 -43 3 -27 77 c-68 199 -201 328 -407 398 -165
55 -389 82 -507 60 -80 -15 -202 -54 -259 -83 -129 -65 -271 -185 -360 -302
-114 -152 -186 -317 -232 -533 -25 -118 -27 -144 -28 -367 0 -194 4 -257 18
-330 87 -427 327 -750 650 -875 151 -59 235 -74 422 -74 132 -1 188 3 248 17
l78 19 47 -44 c26 -24 62 -50 80 -57 17 -7 32 -19 32 -27 0 -19 -151 -90 -245
-116 -70 -18 -107 -21 -285 -21 -238 0 -392 21 -574 80 -407 131 -727 445
-864 848 -145 426 -85 960 149 1334 256 407 668 658 1167 711 115 12 411 4
539 -15z m2031 -31 c317 -36 532 -129 685 -294 120 -130 171 -262 170 -440 -1
-183 -65 -330 -203 -471 -76 -78 -188 -158 -270 -193 -25 -11 -47 -21 -48 -22
-7 -5 551 -901 671 -1078 131 -193 250 -300 363 -327 89 -21 96 -26 92 -62
l-3 -32 -349 0 -350 0 -47 70 c-26 39 -121 198 -211 355 -91 157 -259 448
-373 648 l-209 362 -116 0 c-63 0 -120 -4 -126 -8 -7 -5 -13 -90 -17 -252 -7
-265 -17 -339 -67 -468 -122 -314 -420 -536 -782 -582 -309 -38 -584 33 -794
207 -103 85 -216 252 -262 388 -57 169 -55 139 -59 1068 l-4 857 46 0 c60 0
183 -26 259 -54 l61 -23 5 -824 c5 -822 6 -824 28 -904 58 -200 169 -354 316
-440 124 -72 348 -93 471 -45 178 69 283 192 337 400 l23 85 0 891 0 890 -38
76 c-26 53 -54 92 -95 130 -58 53 -77 82 -66 99 10 16 811 11 962 -7z m-451
-2582 c26 -156 57 -197 173 -232 92 -27 100 -33 100 -76 l0 -34 -402 2 -403 3
0 30 c0 32 0 32 117 84 100 44 179 102 281 207 50 52 99 93 107 91 10 -1 18
-26 27 -75z m-3647 -1339 l100 -16 0 -99 c0 -89 -2 -98 -18 -98 -12 0 -25 14
-37 41 -23 51 -92 112 -143 127 -173 52 -341 -57 -381 -246 -15 -72 -14 -216
3 -277 30 -115 93 -197 184 -242 76 -37 184 -39 249 -5 44 23 85 69 102 115 7
18 18 27 32 27 20 0 20 -3 14 -77 -8 -89 -13 -96 -95 -121 -42 -13 -92 -17
-210 -17 -191 0 -237 15 -334 105 -105 99 -141 198 -134 365 4 95 8 111 41
178 105 212 315 292 627 240z m1809 7 c80 -13 128 -38 173 -88 46 -51 61 -99
56 -177 -5 -76 -38 -134 -102 -173 l-42 -26 92 -151 c110 -179 144 -221 184
-230 21 -5 30 -13 30 -26 0 -19 -7 -19 -112 -17 l-113 3 -110 193 -110 192
-62 0 -63 0 0 -142 c0 -156 8 -184 53 -206 15 -7 27 -20 27 -28 0 -12 -27 -14
-160 -14 -126 0 -160 3 -160 13 0 7 15 20 32 28 58 25 58 29 56 422 l-3 359
-23 18 c-12 10 -28 20 -35 23 -69 25 263 47 392 27z m4446 -13 l60 -13 2 -97
c1 -89 0 -97 -18 -97 -12 0 -24 13 -34 38 -59 141 -251 186 -389 91 -99 -68
-155 -259 -127 -439 21 -136 86 -237 184 -287 133 -67 288 -23 342 96 14 32
24 41 43 41 22 0 24 -3 18 -32 -3 -18 -9 -56 -12 -85 l-7 -52 -66 -23 c-58
-20 -85 -23 -226 -23 -153 0 -163 1 -218 27 -70 33 -155 111 -190 176 -75 139
-76 326 -1 474 50 98 163 183 287 214 62 16 261 11 352 -9z m-5665 1 c0 -7
-12 -24 -25 -37 l-25 -23 0 -268 c0 -301 6 -339 68 -410 53 -63 103 -85 192
-85 86 0 133 18 186 72 68 68 69 70 72 363 4 285 -1 325 -43 358 -43 34 -32
42 65 42 56 0 90 -4 90 -10 0 -6 -10 -24 -22 -41 -22 -30 -23 -39 -28 -332 -5
-288 -6 -304 -28 -348 -49 -100 -134 -156 -260 -170 -206 -24 -342 32 -409
169 l-28 57 -5 296 c-5 273 -7 299 -24 318 -10 11 -27 23 -37 26 -11 4 -19 13
-19 21 0 11 25 14 140 14 105 0 140 -3 140 -12z m2090 -3 c0 -8 -11 -17 -25
-21 -47 -12 -50 -30 -52 -334 -1 -157 1 -323 5 -370 7 -81 8 -85 39 -105 62
-39 45 -45 -116 -45 -89 0 -152 4 -156 10 -3 5 9 19 28 30 19 12 38 31 41 43
11 43 7 705 -5 731 -7 14 -25 29 -40 35 -16 5 -29 17 -29 25 0 14 22 16 155
16 130 0 155 -2 155 -15z m814 -282 c187 -466 217 -524 287 -553 16 -7 29 -19
29 -26 0 -11 -29 -14 -150 -14 -156 0 -171 5 -128 40 l22 18 -49 126 -50 126
-170 0 -170 0 -38 -93 c-46 -114 -47 -142 -8 -165 17 -9 32 -26 35 -36 3 -11
4 -20 3 -21 -1 0 -50 1 -109 3 -114 3 -133 13 -85 45 13 9 38 37 55 64 28 45
292 687 292 712 0 6 -11 21 -25 33 -13 11 -22 25 -19 30 3 4 40 8 82 8 l77 0
119 -297z m649 291 l47 -7 261 -321 c143 -176 264 -322 267 -324 4 -1 5 126 2
282 -5 284 -5 284 -29 310 -14 14 -30 26 -37 26 -7 0 -18 9 -24 20 -10 19 -8
20 105 20 94 0 115 -3 115 -15 0 -8 -8 -19 -19 -24 -10 -6 -26 -26 -35 -45
-14 -30 -16 -84 -16 -426 l0 -392 -35 5 c-23 3 -43 15 -57 32 -26 33 -307 383
-463 577 -60 75 -112 137 -115 137 -3 1 -4 -143 -3 -319 1 -353 3 -360 64
-383 16 -6 29 -17 29 -24 0 -10 -28 -13 -115 -13 -89 0 -115 3 -115 13 0 8 12
20 27 28 51 27 54 50 53 420 l-1 341 -24 24 c-13 13 -33 24 -45 24 -13 0 -20
7 -20 20 0 18 7 20 69 20 37 0 89 -3 114 -6z m1217 -9 c0 -9 -11 -20 -25 -25
-14 -5 -30 -21 -35 -35 -6 -16 -10 -172 -10 -379 0 -374 0 -374 49 -399 48
-25 21 -32 -129 -35 -116 -2 -150 0 -150 10 0 7 14 21 30 30 17 9 35 29 40 43
13 35 13 685 0 720 -5 14 -23 34 -40 43 -61 35 -40 42 120 42 128 0 150 -2
150 -15z"/>
<path d="M6060 6602 l0 -581 46 -7 c85 -12 293 2 358 25 183 65 295 195 347
402 29 112 23 305 -10 389 -62 155 -210 265 -436 325 -33 9 -115 19 -182 22
l-123 6 0 -581z"/>
<path d="M3932 3183 c3 -225 -2 -213 92 -193 69 14 114 44 144 95 32 55 28
155 -8 209 -34 50 -108 86 -177 86 l-53 0 2 -197z"/>
<path d="M5574 3234 c-4 -10 -36 -91 -71 -179 -34 -88 -63 -163 -63 -167 0 -4
65 -8 145 -8 80 0 145 4 145 8 0 10 -138 353 -145 360 -2 3 -8 -4 -11 -14z"/>
</g>
</svg>
